# xmcd
#
# Track frame offsets:
#	150
#	27732
#	53260
#	69134
#	91416
#	112889
#	129584
#	149975
#	170084
#	184560
#	203849
#
# Disc length: 2973 seconds
#
# Revision: 4262133714
# Processed by: cddbd v1.5.2PL0 Copyright (c) Steve Scherf et al.
# Submitted via: EZCDAudioConverter 8.0.2.1
#
DISCID=9a0b9b0b
DTITLE=Quang Vinh - Miền Cát Trắng
DYEAR=2003
DGENRE=World Pop
TTITLE0=Dân nước Nam
TTITLE1=Miền cát trắng
TTITLE2=Nhớ em nhiều
TTITLE3=Rằng ta chia tay
TTITLE4=Không còn tình yêu
TTITLE5=Đừng giận anh nhé em
TTITLE6=Ro-me-o một mình
TTITLE7=Đời mãi có nhau
TTITLE8=Xin cho anh được mơ
TTITLE9=Chúc mừng sinh nhật
TTITLE10=Hát vang câu yêu đời
EXTD=
EXTT0=
EXTT1=
EXTT2=
EXTT3=
EXTT4=
EXTT5=
EXTT6=
EXTT7=
EXTT8=
EXTT9=
EXTT10=
PLAYORDER=
